<svg width="1920" height="1079" viewBox="0 0 1920 1079" fill="none" xmlns="http://www.w3.org/2000/svg">
<mask id="mask0_63_10078" style="mask-type:alpha" maskUnits="userSpaceOnUse" x="0" y="0" width="1920" height="1079">
<rect width="1920" height="1079" fill="#153324"/>
</mask>
<g mask="url(#mask0_63_10078)">
<g style="mix-blend-mode:overlay" opacity="0.84">
<mask id="mask1_63_10078" style="mask-type:luminance" maskUnits="userSpaceOnUse" x="-316" y="-123" width="2237" height="1259">
<path d="M1920.46 -123H-316V1135.01H1920.46V-123Z" fill="white"/>
</mask>
<g mask="url(#mask1_63_10078)">
<path d="M1920.46 296.817C1790.56 308.466 1758.25 581.033 1598.63 557.734C1439.01 534.436 1445.35 336.822 1241.19 299.251C1032.3 260.813 762.812 476.197 538.352 476.197C313.892 476.197 164.912 275.846 9.38419 261.87C-146.137 247.899 -245.734 403.981 -326.485 583.366" stroke="#F1F1F2" stroke-width="2" stroke-miterlimit="10"/>
<path d="M-326.485 568.899C-246.614 392.293 -148.515 237.57 6.1511 251.446C160.811 265.322 305.671 466.591 527.061 475.07C745.785 483.448 1009.33 278.701 1218.22 316.24C1426.76 353.056 1423.68 531.152 1583.14 553.419C1742.6 575.685 1772.87 330.273 1920.46 319.85" stroke="#EEEEEF" stroke-width="2" stroke-miterlimit="10"/>
<path d="M-326.485 554.431C-247.495 380.606 -150.886 227.248 2.91175 241.023C156.71 254.799 299.959 456.98 515.764 473.944C728.695 490.682 986.235 297.2 1195.26 333.229C1408.06 369.913 1408.35 527.869 1567.66 549.104C1726.96 570.339 1755.19 352.081 1920.46 342.891" stroke="#ECECED" stroke-width="2" stroke-miterlimit="10"/>
<path d="M-326.485 539.966C-248.369 368.914 -153.258 216.921 -0.321343 230.596C152.615 244.27 294.185 447.338 504.48 472.813C711.561 497.898 963.22 315.342 1172.3 350.214C1389.43 386.426 1393.03 524.586 1552.18 544.79C1711.31 564.994 1737.51 373.889 1920.46 365.933" stroke="#E9E9EA" stroke-width="2" stroke-miterlimit="10"/>
<path d="M-326.485 525.499C-249.25 357.227 -155.629 206.6 -3.56073 220.174C148.507 233.747 288.341 437.683 493.183 471.687C694.358 505.087 940.198 333.47 1149.33 367.203C1370.8 402.931 1377.7 521.303 1536.68 540.475C1695.66 559.647 1719.82 395.704 1920.46 388.973" stroke="#E6E7E8" stroke-width="2" stroke-miterlimit="10"/>
<path d="M-326.485 511.031C-250.131 345.54 -158 196.271 -6.79383 209.744C144.413 223.218 282.435 427.977 481.892 470.555C677.098 512.226 917.189 351.56 1126.36 384.186C1352.18 419.41 1362.37 518.013 1521.19 536.154C1680.01 554.294 1702.13 417.505 1920.46 412.007" stroke="#E4E4E5" stroke-width="2" stroke-miterlimit="10"/>
<path d="M-326.485 496.563C-251.011 333.846 -160.372 185.942 -10.0332 199.321C140.305 212.693 276.46 418.227 470.596 469.428C659.781 519.321 894.18 369.63 1103.39 401.175C1333.55 435.877 1347.04 514.729 1505.7 531.838C1664.36 548.953 1684.44 439.311 1920.45 435.04" stroke="#E1E1E3" stroke-width="2" stroke-miterlimit="10"/>
<path d="M-326.485 482.096C-251.886 322.159 -162.743 175.62 -13.2663 188.892C136.21 202.164 270.44 408.415 459.311 468.296C642.421 526.347 871.19 387.676 1080.44 418.164C1314.95 452.326 1331.72 511.446 1490.22 527.529C1648.73 543.613 1666.77 461.132 1920.46 458.087" stroke="#DFDFE0" stroke-width="2" stroke-miterlimit="10"/>
<path d="M-326.485 467.63C-252.766 310.473 -165.121 165.293 -16.5057 178.47C132.109 191.648 264.357 398.54 448.014 467.171C625.01 533.305 848.193 405.711 1057.47 435.155C1296.33 468.762 1316.39 508.163 1474.73 523.215C1633.08 538.268 1649.09 482.94 1920.46 481.129" stroke="#DCDCDE" stroke-width="2" stroke-miterlimit="10"/>
<path d="M-326.485 453.162C-253.647 298.779 -167.492 154.97 -19.7388 168.041C128.008 181.111 258.237 388.582 436.724 466.038C607.568 540.179 825.203 423.712 1034.5 452.137C1277.73 485.166 1301.06 504.873 1459.25 518.893C1617.43 532.914 1631.4 504.747 1920.46 504.162" stroke="#D9DADB" stroke-width="2" stroke-miterlimit="10"/>
<path d="M-326.485 438.695C-254.527 287.093 -169.863 144.642 -22.9781 157.612C123.907 170.582 252.086 378.531 425.427 464.906C590.1 546.96 802.213 441.696 1011.53 469.12C1259.12 501.558 1285.73 501.583 1443.75 514.572C1601.78 527.561 1613.71 526.548 1920.46 527.196" stroke="#D7D7D9" stroke-width="2" stroke-miterlimit="10"/>
<path d="M-326.485 424.227C-255.402 275.398 -172.235 134.319 -26.2112 147.188C119.806 160.058 245.928 368.397 414.136 463.779C572.633 553.651 779.229 459.665 988.575 486.109C1240.54 517.936 1270.41 498.299 1428.27 510.263C1586.14 522.22 1596.04 548.361 1920.46 550.242" stroke="#D4D5D6" stroke-width="2" stroke-miterlimit="10"/>
<path d="M-326.485 409.761C-256.282 263.712 -174.606 123.991 -29.4506 136.76C115.705 149.529 239.763 358.157 402.845 462.647C555.165 560.244 756.252 477.611 965.61 503.092C1221.94 534.291 1255.08 495.01 1412.79 505.942C1570.49 516.874 1578.35 570.169 1920.46 573.27" stroke="#D1D2D4" stroke-width="2" stroke-miterlimit="10"/>
<path d="M-326.485 395.294C-257.163 252.026 -176.977 113.67 -32.69 126.338C111.604 139.006 233.618 347.829 391.549 461.522C537.717 566.748 733.268 495.551 942.638 520.082C1203.34 550.633 1239.75 491.727 1397.3 501.627C1554.84 511.528 1560.66 591.977 1920.46 596.311" stroke="#CFCFD1" stroke-width="2" stroke-miterlimit="10"/>
<path d="M-326.485 380.826C-258.037 240.332 -179.349 103.341 -35.923 115.908C107.503 128.476 227.51 337.4 380.258 460.383C520.312 573.151 710.29 513.452 919.673 537.059C1184.75 566.943 1224.42 488.43 1381.81 497.299C1539.2 506.168 1542.98 613.772 1920.46 619.339" stroke="#CCCDCF" stroke-width="2" stroke-miterlimit="10"/>
<path d="M-326.485 366.359C-258.918 228.645 -181.72 93.019 -39.1624 105.486C103.402 117.953 221.453 326.896 368.961 459.257C502.945 579.485 687.313 531.36 896.702 554.048C1166.16 583.246 1209.08 485.153 1366.32 492.99C1523.54 500.828 1525.29 635.592 1920.46 642.385" stroke="#C9CACC" stroke-width="2" stroke-miterlimit="10"/>
<path d="M-326.485 351.892C-259.798 216.958 -184.098 82.6907 -42.3955 95.0569C99.3004 107.423 215.459 316.309 357.67 458.125C485.648 585.743 664.342 549.242 873.744 571.031C1147.59 599.525 1193.76 481.863 1350.83 488.669C1507.9 495.475 1507.61 657.393 1920.46 665.419" stroke="#C7C8CA" stroke-width="2" stroke-miterlimit="10"/>
<path d="M-326.485 337.425C-260.679 205.265 -186.469 72.3688 -45.6349 84.6344C95.1993 96.9 209.533 305.66 346.38 456.999C468.407 591.952 641.377 567.119 850.779 588.021C1129 615.791 1178.44 478.58 1335.34 484.354C1492.26 490.129 1489.92 679.201 1920.46 688.46" stroke="#C4C5C7" stroke-width="2" stroke-miterlimit="10"/>
<path d="M-326.485 322.957C-261.553 193.577 -188.84 62.04 -48.868 74.2049C91.1045 86.3699 203.696 294.96 335.089 455.866C451.241 598.109 618.405 584.976 827.814 605.003C1110.42 632.038 1163.11 475.29 1319.86 480.032C1476.61 484.781 1472.24 701.008 1920.46 711.487" stroke="#C2C3C5" stroke-width="2" stroke-miterlimit="10"/>
<path d="M-326.485 308.492C-262.434 181.892 -191.212 51.713 -52.1073 63.7836C86.9971 75.8542 197.935 284.225 323.792 454.741C434.138 604.243 595.434 602.828 804.842 621.994C1091.84 648.267 1147.78 472.008 1304.37 475.725C1460.96 479.442 1454.55 722.823 1920.46 734.535" stroke="#BFC0C2" stroke-width="2" stroke-miterlimit="10"/>
<path d="M-326.485 294.025C-263.315 170.199 -193.583 41.3913 -55.3404 53.3549C82.9023 65.3186 192.267 273.456 312.502 453.61C417.118 610.358 572.469 620.661 781.877 638.984C1073.26 664.477 1132.45 468.725 1288.88 471.41C1445.31 474.096 1436.87 744.631 1920.46 757.576" stroke="#BCBDBF" stroke-width="2" stroke-miterlimit="10"/>
<path d="M-326.485 279.557C-264.189 158.511 -195.954 31.0624 -58.5798 42.9317C78.7948 54.7947 186.675 262.687 301.205 452.483C400.153 616.465 549.492 638.486 758.912 655.972C1054.68 680.667 1117.12 465.44 1273.39 467.095C1429.66 468.749 1419.19 766.444 1920.46 780.616" stroke="#BABBBD" stroke-width="2" stroke-miterlimit="10"/>
<path d="M-326.485 265.09C-265.069 146.818 -198.326 20.7339 -61.8129 32.5026C74.7 44.265 181.172 251.906 289.92 451.35C383.277 622.566 526.533 656.293 735.954 672.955C1036.11 696.838 1101.8 462.151 1257.91 462.773C1414.03 463.396 1401.51 788.245 1920.46 803.65" stroke="#B7B8BA" stroke-width="2" stroke-miterlimit="10"/>
<path d="M-326.485 250.624C-265.95 135.132 -200.697 10.4134 -65.0522 22.0751C70.5989 33.7369 175.731 241.132 278.623 450.22C366.439 628.681 503.562 674.089 712.983 689.94C1017.53 712.986 1086.47 458.862 1242.42 458.46C1398.38 458.051 1383.82 810.054 1920.46 826.692" stroke="#B4B6B8" stroke-width="2" stroke-miterlimit="10"/>
<path d="M-326.485 236.155C-266.824 123.437 -203.068 0.0829362 -68.2853 11.644C66.4978 23.2051 170.372 230.374 267.333 449.085C349.669 634.812 480.597 691.875 690.018 706.921C998.953 729.112 1071.14 455.57 1226.94 454.136C1382.73 452.696 1366.13 831.86 1920.46 849.717" stroke="#B2B3B5" stroke-width="2" stroke-miterlimit="10"/>
<path d="M-326.485 221.689C-267.705 111.752 -205.446 -10.2372 -71.5247 1.22324C62.3967 12.6837 165.069 219.645 256.036 447.961C332.938 640.978 457.625 709.659 667.046 723.912C980.372 745.235 1055.81 452.289 1211.44 449.823C1367.08 447.357 1348.45 853.669 1920.46 872.759" stroke="#AFB0B3" stroke-width="2" stroke-miterlimit="10"/>
<path d="M-326.485 207.22C-268.586 100.063 -207.817 -20.5674 -74.7578 -9.20759C58.2956 2.15224 159.823 208.931 244.745 446.827C316.257 647.159 434.66 727.426 644.088 740.893C961.804 761.323 1040.49 449.004 1195.96 445.5C1351.44 442.003 1330.77 875.475 1920.46 895.792" stroke="#ACAEB0" stroke-width="2" stroke-miterlimit="10"/>
<path d="M-326.485 192.754C-269.466 88.3703 -210.189 -30.889 -77.9972 -19.6298C54.1945 -8.37061 154.621 198.257 233.455 445.702C299.62 653.374 411.696 745.19 621.123 757.883C943.236 777.401 1025.16 445.72 1180.47 441.192C1335.79 436.663 1313.08 897.289 1920.46 918.839" stroke="#AAABAE" stroke-width="2" stroke-miterlimit="10"/>
<path d="M-326.485 178.287C-270.341 76.6839 -212.56 -41.2167 -81.2302 -30.0582C50.0996 -18.8996 149.464 187.609 222.164 444.57C283.008 659.614 388.731 762.941 598.158 774.867C924.662 793.46 1009.83 442.431 1164.99 436.871C1320.14 431.311 1295.4 919.091 1920.46 941.874" stroke="#A7A9AB" stroke-width="2" stroke-miterlimit="10"/>
<path d="M-326.485 163.819C-271.221 64.9902 -214.931 -51.5392 -84.4696 -40.4813C45.9923 -29.4234 144.337 176.997 210.867 443.443C266.414 665.891 365.759 780.691 575.186 791.855C906.074 809.499 994.5 439.147 1149.49 432.555C1304.49 425.963 1277.71 940.904 1920.46 964.907" stroke="#A4A6A9" stroke-width="2" stroke-miterlimit="10"/>
<path d="M-326.485 149.353C-272.102 53.3036 -217.303 -61.8672 -87.7027 -50.9099C41.8974 -39.9527 139.242 166.418 199.576 442.312C249.853 672.194 342.788 798.423 552.222 808.839C887.5 825.514 979.171 435.858 1134.01 428.234C1288.84 420.611 1260.03 962.706 1920.46 987.942" stroke="#A2A4A6" stroke-width="2" stroke-miterlimit="10"/>
<path d="M-326.485 134.885C-272.982 41.6166 -219.674 -72.1892 -90.9421 -61.3326C37.79 -50.476 134.166 155.875 188.279 441.186C233.297 678.534 319.817 816.154 529.257 825.828C868.925 841.522 963.842 432.574 1118.52 423.919C1273.2 415.271 1242.35 984.513 1920.46 1010.98" stroke="#9FA1A4" stroke-width="2" stroke-miterlimit="10"/>
<path d="M-326.485 120.412C-273.857 29.9238 -222.046 -82.5171 -94.1752 -71.7612C33.6952 -61.0052 129.109 145.352 176.995 440.054C216.773 684.894 296.852 833.874 506.298 842.812C850.357 857.499 948.52 429.285 1103.04 419.605C1257.56 409.924 1224.67 1006.33 1920.46 1034.02" stroke="#9D9EA1" stroke-width="2" stroke-miterlimit="10"/>
<path d="M-326.485 105.945C-274.737 18.2367 -224.423 -92.8455 -97.4145 -82.1902C29.5941 -71.5349 124.071 134.867 165.698 438.921C200.249 691.284 273.874 851.586 483.327 859.801C831.77 873.463 933.191 426.002 1087.55 415.29C1241.91 404.578 1206.98 1028.14 1920.46 1057.06" stroke="#9A9C9F" stroke-width="2" stroke-miterlimit="10"/>
<path d="M-326.485 91.4785C-275.618 6.55023 -226.795 -103.167 -100.648 -92.6124C25.493 -82.0577 119.039 124.413 154.408 437.796C183.738 697.707 250.916 868.916 460.362 876.791C813.214 888.78 917.862 422.719 1072.06 410.975C1226.26 399.232 1189.3 1049.94 1920.46 1080.1" stroke="#97999C" stroke-width="2" stroke-miterlimit="10"/>
<path d="M-326.485 77.0113C-276.492 -5.14305 -229.166 -113.495 -103.887 -103.041C21.3919 -92.5873 114.623 113.921 143.111 436.664C167.73 704.104 227.932 886.798 437.39 893.774C794.615 905.008 902.527 419.429 1056.57 406.654C1210.61 393.879 1171.61 1071.75 1920.46 1103.13" stroke="#95979A" stroke-width="2" stroke-miterlimit="10"/>
<path d="M-326.485 62.5441C-277.373 -16.83 -231.537 -123.817 -107.12 -113.464C17.2971 -103.111 109.006 103.574 131.826 435.538C150.734 710.62 204.954 904.687 414.438 910.763C776.04 921.249 887.211 416.145 1041.1 402.345C1194.98 388.538 1153.93 1093.56 1920.47 1126.18" stroke="#929497" stroke-width="2" stroke-miterlimit="10"/>
</g>
</g>
</g>
</svg>
