<svg width="60" height="60" viewBox="0 0 60 60" fill="none" xmlns="http://www.w3.org/2000/svg">
<path d="M22.5 55H37.5C50 55 55 50 55 37.5V22.5C55 10 50 5 37.5 5H22.5C10 5 5 10 5 22.5V37.5C5 50 10 55 22.5 55Z" stroke="#4556A6" stroke-width="3" stroke-linecap="round" stroke-linejoin="round"/>
<path d="M45.9508 38.1741V18.9491C45.9508 17.0241 44.4008 15.6241 42.5008 15.7741H42.4008C39.0508 16.0491 33.9758 17.7742 31.1258 19.5492L30.8509 19.7242C30.4009 19.9992 29.6257 19.9992 29.1507 19.7242L28.7508 19.4742C25.9258 17.6992 20.8508 16.0241 17.5008 15.7491C15.6008 15.5991 14.0508 17.0242 14.0508 18.9242V38.1741C14.0508 39.6991 15.3007 41.1491 16.8257 41.3241L17.2757 41.3991C20.7257 41.8491 26.0759 43.6241 29.1259 45.2991L29.2008 45.3242C29.6258 45.5742 30.3257 45.5742 30.7257 45.3242C33.7757 43.6242 39.1508 41.8741 42.6258 41.3991L43.1508 41.3241C44.7008 41.1491 45.9508 39.7241 45.9508 38.1741Z" stroke="#4556A6" stroke-width="3" stroke-linecap="round" stroke-linejoin="round"/>
<path d="M30 20.25V44.15" stroke="#4556A6" stroke-width="3" stroke-linecap="round" stroke-linejoin="round"/>
</svg>
