<svg width="18" height="18" viewBox="0 0 18 18" fill="none" xmlns="http://www.w3.org/2000/svg">
<path d="M16.5 3.50228V12.5548C16.5 13.2748 15.915 13.9498 15.195 14.0398L14.9475 14.0698C13.3125 14.2873 10.7925 15.1198 9.35248 15.9148C9.15748 16.0273 8.83501 16.0273 8.63251 15.9148L8.60248 15.8998C7.16248 15.1123 4.65002 14.2873 3.02252 14.0698L2.80499 14.0398C2.08499 13.9498 1.5 13.2748 1.5 12.5548V3.49477C1.5 2.60227 2.22748 1.92728 3.11998 2.00228C4.69498 2.12978 7.07998 2.9248 8.41498 3.7573L8.60248 3.86977C8.81998 4.00477 9.18002 4.00477 9.39752 3.86977L9.52501 3.78728C9.99751 3.49478 10.5975 3.20228 11.25 2.93978V5.99979L12.75 5.00228L14.25 5.99979V2.08481C14.4525 2.04731 14.6475 2.02478 14.8275 2.00978H14.8725C15.765 1.93478 16.5 2.60228 16.5 3.50228Z" stroke="#B357C3" stroke-width="1.5" stroke-linecap="round" stroke-linejoin="round"/>
<path d="M9 4.11768V15.3677" stroke="#B357C3" stroke-width="1.5" stroke-linecap="round" stroke-linejoin="round"/>
<path d="M14.25 2.08496V5.99994L12.75 5.00243L11.25 5.99994V2.93993C12.2325 2.54993 13.3275 2.23496 14.25 2.08496Z" stroke="#B357C3" stroke-width="1.5" stroke-linecap="round" stroke-linejoin="round"/>
</svg>
