<svg width="64" height="64" viewBox="0 0 64 64" fill="none" xmlns="http://www.w3.org/2000/svg">
<path d="M31.9993 31.9987C39.3631 31.9987 45.3327 26.0292 45.3327 18.6654C45.3327 11.3016 39.3631 5.33203 31.9993 5.33203C24.6356 5.33203 18.666 11.3016 18.666 18.6654C18.666 26.0292 24.6356 31.9987 31.9993 31.9987Z" stroke="#292D32" stroke-width="2" stroke-linecap="round" stroke-linejoin="round"/>
<path d="M9.09375 58.6667C9.09375 48.3467 19.3604 40 32.0004 40C34.5604 40 37.0404 40.3467 39.3604 40.9867" stroke="#292D32" stroke-width="2" stroke-linecap="round" stroke-linejoin="round"/>
<path d="M58.6673 47.9987C58.6673 49.9987 58.1074 51.892 57.1207 53.492C56.5607 54.452 55.8407 55.3054 55.014 55.9987C53.1473 57.6787 50.694 58.6654 48.0007 58.6654C44.1073 58.6654 40.7206 56.5854 38.8806 53.492C37.8939 51.892 37.334 49.9987 37.334 47.9987C37.334 44.6387 38.8807 41.6254 41.334 39.6787C43.174 38.212 45.494 37.332 48.0007 37.332C53.894 37.332 58.6673 42.1054 58.6673 47.9987Z" stroke="#B357C3" stroke-width="2" stroke-miterlimit="10" stroke-linecap="round" stroke-linejoin="round"/>
<path d="M41 41L55.4991 55.503" stroke="#B357C3" stroke-width="2" stroke-linecap="round" stroke-linejoin="round"/>
</svg>
