<svg width="64" height="64" viewBox="0 0 64 64" fill="none" xmlns="http://www.w3.org/2000/svg">
<path d="M8.45312 19.8398L31.9998 33.4665L55.3864 19.9198" stroke="#292D32" stroke-width="2" stroke-linecap="round" stroke-linejoin="round"/>
<path d="M32 57.6281V33.4414" stroke="#292D32" stroke-width="2" stroke-linecap="round" stroke-linejoin="round"/>
<path d="M26.4797 6.61203L12.2397 14.5321C9.013 16.3188 6.37305 20.7987 6.37305 24.4787V39.5455C6.37305 43.2255 9.013 47.7054 12.2397 49.4921L26.4797 57.4122C29.5197 59.0922 34.5063 59.0922 37.5463 57.4122L51.7864 49.4921C55.013 47.7054 57.653 43.2255 57.653 39.5455V24.4787C57.653 20.7987 55.013 16.3188 51.7864 14.5321L37.5463 6.61203C34.4796 4.90536 29.5197 4.90536 26.4797 6.61203Z" stroke="#292D32" stroke-width="2" stroke-linecap="round" stroke-linejoin="round"/>
<path d="M45.334 35.307V25.547L20.0273 10.9336" stroke="#B357C3" stroke-width="2" stroke-linecap="round" stroke-linejoin="round"/>
</svg>
