<svg width="324" height="50" viewBox="0 0 324 50" fill="none" xmlns="http://www.w3.org/2000/svg">
<path d="M9.92294 16.3675C13.634 16.3675 16.6408 13.3594 16.6408 9.64958C16.6408 5.93849 13.6328 2.9317 9.92294 2.9317C6.21308 2.9317 3.20505 5.93972 3.20505 9.64958C3.20505 13.3594 6.21184 16.3675 9.92294 16.3675Z" fill="url(#paint0_linear_5_428)"/>
<path d="M9.92294 16.3675C13.634 16.3675 16.6408 13.3594 16.6408 9.64958C16.6408 5.93849 13.6328 2.9317 9.92294 2.9317C6.21431 2.9317 3.20505 5.93972 3.20505 9.64958C3.20505 13.3594 6.21431 16.3675 9.92294 16.3675Z" fill="url(#paint1_linear_5_428)"/>
<path d="M41.7984 25.2044C32.5207 25.2044 25 17.6849 25 8.40845C25 17.6862 17.4805 25.2044 8.20404 25.2044C17.4818 25.2044 25 32.7251 25 42.0028C25.0012 32.7251 32.5219 25.2044 41.7984 25.2044Z" fill="url(#paint2_linear_5_428)"/>
<path d="M70.8961 15.5277C70.7718 15.5277 70.5982 15.5597 70.3827 15.6213C70.1623 15.6841 70.0539 15.9353 70.0539 16.3712V26.6795C70.0539 26.8038 70.0847 26.9676 70.1475 27.172C70.2091 27.3752 70.459 27.4761 70.8961 27.4761H76.3323C78.2063 27.4761 79.6432 27.3431 80.6417 27.0772C81.6403 26.8125 82.3766 26.2965 82.8457 25.5307C83.3124 24.7661 83.5476 23.4621 83.5476 21.6201V21.3862C83.5476 19.8249 83.3764 18.638 83.0341 17.8253C82.6881 17.0139 82.0491 16.4278 81.1121 16.067C80.1739 15.71 78.5818 15.5277 76.3335 15.5277H70.8961ZM65.4144 42.0016C64.8838 42.0016 64.4368 41.823 64.0797 41.4623C63.719 41.104 63.5404 40.6583 63.5404 40.1276V11.5938C63.5404 11.0311 63.719 10.5718 64.0797 10.2111C64.4368 9.85275 64.8838 9.67175 65.4144 9.67175H76.4726C78.9389 9.67175 81.0333 9.85152 82.7509 10.2111C84.4673 10.5718 85.8673 11.1727 86.9435 12.0161C88.0221 12.8583 88.8261 14.0305 89.3555 15.529C89.8875 17.0287 90.1522 18.9027 90.1522 21.1535V21.8565C90.1522 24.6983 89.7459 26.9319 88.9344 28.5547C88.1218 30.1788 86.7785 31.3818 84.9045 32.1624C83.0304 32.9455 80.2194 33.3346 76.4714 33.3346H70.8937C70.3334 33.3346 70.0515 33.6153 70.0515 34.1768V40.1288C70.0515 40.6595 69.8717 41.104 69.5122 41.4635C69.1514 41.8243 68.6921 42.0028 68.1294 42.0028H65.4144V42.0016Z" fill="url(#paint3_linear_5_428)"/>
<path d="M100.602 40.1276C100.602 40.6595 100.422 41.1052 100.063 41.4635C99.702 41.8218 99.2427 42.0004 98.6801 42.0004H96.0094C95.4775 42.0004 95.0318 41.8218 94.6747 41.4635C94.3139 41.1052 94.1354 40.6595 94.1354 40.1276V11.1259C94.1354 10.5632 94.3139 10.1015 94.6747 9.74316C95.0318 9.38486 95.4775 9.20386 96.0094 9.20386H98.6801C99.2427 9.20386 99.702 9.38363 100.063 9.74316C100.421 10.1015 100.602 10.5632 100.602 11.1259V40.1276Z" fill="url(#paint4_linear_5_428)"/>
<path d="M119.953 33.0058C119.953 32.6303 119.89 32.3114 119.766 32.0442C119.641 31.7807 119.266 31.5849 118.643 31.4606C117.799 31.2734 116.674 31.1798 115.268 31.1798H114.801C113.331 31.1798 112.301 31.3904 111.708 31.8127C111.114 32.2326 110.818 32.9455 110.818 33.9441V34.2728C110.818 35.3354 111.114 36.0927 111.708 36.5445C112.299 36.9976 113.347 37.2242 114.848 37.2242H115.268C116.55 37.2242 117.566 37.1466 118.313 36.9903C118.813 36.8967 119.21 36.7329 119.508 36.4977C119.804 36.2638 119.954 35.7245 119.954 34.8823V33.0058H119.953ZM107.396 23.8217C106.864 23.8217 106.429 23.6579 106.084 23.3292C105.741 23.0004 105.57 22.5411 105.57 21.9476V20.4012C105.57 19.1206 106.225 18.3092 107.538 17.9657C109.849 17.3094 112.644 16.9807 115.924 16.9807C118.953 16.9807 121.173 17.3882 122.578 18.1996C123.984 19.0123 124.977 20.2534 125.553 21.9255C126.132 23.5976 126.42 25.9001 126.42 28.8367V34.8343C126.42 36.5199 126.114 37.8866 125.506 38.9332C124.898 39.9811 123.851 40.7925 122.366 41.3687C120.883 41.9474 118.627 42.2355 115.595 42.2355H114.331C111.019 42.2355 108.535 41.6026 106.88 40.3381C105.226 39.0724 104.397 37.0506 104.397 34.2704V33.7544C104.397 32.8494 104.521 31.9728 104.772 31.1306C105.021 30.2871 105.476 29.5594 106.131 28.95C106.787 28.3417 107.692 27.8578 108.849 27.4983C110.003 27.14 111.52 26.959 113.393 26.959H114.424C115.923 26.959 117.469 27.0993 119.063 27.3813C119.656 27.4749 119.953 27.1942 119.953 26.5379C119.953 25.0702 119.616 24.0408 118.947 23.4449C118.275 22.8539 117.095 22.5547 115.407 22.5547C114.565 22.5547 113.698 22.6175 112.807 22.7443C111.918 22.8687 110.886 23.0792 109.714 23.3759C108.543 23.6739 107.771 23.8217 107.396 23.8217Z" fill="url(#paint5_linear_5_428)"/>
<path d="M144.457 34.4119C144.457 33.8493 144.223 33.4035 143.754 33.076C143.285 32.7497 141.707 32.3348 139.022 31.8349C136.677 31.3965 134.882 30.9213 133.634 30.4054C132.383 29.8894 131.478 29.2024 130.915 28.3442C130.352 27.486 130.072 26.1808 130.072 24.4312C130.072 21.8381 130.861 19.9481 132.439 18.7623C134.018 17.5766 136.554 16.9831 140.052 16.9831C143.395 16.9831 146.113 17.3094 148.206 17.9657C148.891 18.1861 149.376 18.4582 149.658 18.7857C149.938 19.1145 150.08 19.6365 150.08 20.3568V22.2776C150.08 22.8096 149.909 23.2528 149.564 23.6124C149.219 23.9731 148.783 24.1517 148.253 24.1517C147.877 24.1517 147.104 23.9731 145.934 23.6124C144.762 23.2541 143.714 22.9979 142.795 22.8403C141.871 22.684 140.973 22.6064 140.099 22.6064C138.788 22.6064 137.874 22.7542 137.358 23.0497C136.842 23.3476 136.586 23.8389 136.586 24.526C136.586 25.0887 136.828 25.511 137.312 25.7917C137.797 26.0725 138.819 26.3852 140.38 26.7275C143.191 27.2594 145.315 27.7827 146.752 28.2986C148.189 28.8145 149.244 29.4782 149.915 30.2896C150.586 31.1023 150.923 32.3828 150.923 34.1325C150.923 36.9127 150.073 38.9579 148.37 40.2704C146.666 41.583 143.831 42.238 139.864 42.238C136.708 42.238 134.008 41.9425 131.759 41.349C131.071 41.1619 130.579 40.8959 130.283 40.5524C129.985 40.2101 129.838 39.6621 129.838 38.9111V36.9903C129.838 36.4596 130.009 36.0151 130.351 35.6543C130.696 35.2973 131.148 35.1175 131.71 35.1175C132.116 35.1175 132.953 35.2973 134.217 35.6543C135.483 36.0151 136.6 36.2724 137.568 36.4276C138.536 36.5839 139.458 36.6615 140.332 36.6615C141.519 36.6615 142.503 36.5298 143.283 36.2626C144.066 35.9966 144.457 35.3797 144.457 34.4119Z" fill="url(#paint6_linear_5_428)"/>
<path d="M188.171 42.0016H185.5C184.938 42.0016 184.476 41.823 184.119 41.4623C183.758 41.104 183.578 40.6582 183.578 40.1276V30.8979C183.578 28.5867 183.447 26.8839 183.182 25.7893C182.915 24.6971 182.329 23.9091 181.424 23.424C180.519 22.9413 178.816 22.6975 176.317 22.6975C175.724 22.6975 175.427 22.9782 175.427 23.5409V40.1276C175.427 40.6582 175.247 41.1027 174.888 41.4623C174.53 41.823 174.069 42.0016 173.506 42.0016H170.883C170.32 42.0016 169.858 41.823 169.5 41.4623C169.142 41.104 168.961 40.6582 168.961 40.1276V23.5409C168.961 22.9782 168.618 22.6975 167.931 22.6975C165.9 22.6975 164.135 22.8243 162.637 23.073C161.948 23.1666 161.479 23.371 161.231 23.6825C160.979 23.994 160.855 24.5567 160.855 25.3682V40.1288C160.855 40.6595 160.668 41.104 160.292 41.4635C159.917 41.8243 159.465 42.0028 158.934 42.0028H156.262C155.702 42.0028 155.24 41.8243 154.881 41.4635C154.522 41.1052 154.341 40.6595 154.341 40.1288V22.4636C154.341 20.9959 154.622 19.8963 155.185 19.16C155.748 18.4274 156.761 17.9497 158.23 17.7317C161.665 17.1998 166.382 16.9351 172.379 16.9351C178.001 16.9351 181.937 17.2872 184.185 17.9903C186.436 18.6934 187.974 19.8803 188.801 21.5512C189.629 23.2233 190.043 25.6969 190.043 28.9771V40.13C190.043 40.6607 189.864 41.1052 189.506 41.4647C189.149 41.823 188.702 42.0016 188.171 42.0016Z" fill="url(#paint7_linear_5_428)"/>
<path d="M209.161 33.0058C209.161 32.6303 209.098 32.3114 208.974 32.0442C208.849 31.7807 208.474 31.5849 207.851 31.4606C207.007 31.2734 205.882 31.1798 204.477 31.1798H204.008C202.538 31.1798 201.508 31.3904 200.915 31.8127C200.321 32.2326 200.025 32.9455 200.025 33.9441V34.2728C200.025 35.3354 200.323 36.0927 200.915 36.5445C201.508 36.9976 202.554 37.2242 204.055 37.2242H204.477C205.757 37.2242 206.772 37.1466 207.521 36.9903C208.021 36.8967 208.418 36.7329 208.716 36.4977C209.014 36.2638 209.162 35.7245 209.162 34.8823V33.0058H209.161ZM196.604 23.8217C196.072 23.8217 195.636 23.6579 195.293 23.3292C194.948 23.0004 194.777 22.5411 194.777 21.9476V20.4012C194.777 19.1206 195.432 18.3092 196.744 17.9657C199.056 17.3094 201.853 16.9807 205.131 16.9807C208.162 16.9807 210.38 17.3882 211.785 18.1996C213.191 19.0123 214.183 20.2534 214.759 21.9255C215.338 23.5976 215.626 25.9001 215.626 28.8367V34.8343C215.626 36.5199 215.322 37.8866 214.714 38.9332C214.104 39.9811 213.057 40.7925 211.573 41.3687C210.089 41.9474 207.833 42.2355 204.802 42.2355H203.537C200.227 42.2355 197.742 41.6026 196.087 40.3381C194.432 39.0724 193.603 37.0506 193.603 34.2704V33.7544C193.603 32.8494 193.728 31.9728 193.979 31.1306C194.23 30.2871 194.682 29.5594 195.338 28.95C195.993 28.3417 196.9 27.8578 198.056 27.4983C199.209 27.14 200.726 26.959 202.599 26.959H203.631C205.13 26.959 206.676 27.0993 208.271 27.3813C208.862 27.4749 209.159 27.1942 209.159 26.5379C209.159 25.0702 208.825 24.0408 208.154 23.4449C207.481 22.8539 206.302 22.5547 204.616 22.5547C203.773 22.5547 202.905 22.6175 202.016 22.7443C201.125 22.8687 200.094 23.0792 198.921 23.3759C197.753 23.6739 196.978 23.8217 196.604 23.8217Z" fill="url(#paint8_linear_5_428)"/>
<path d="M236.804 15.5277C236.68 15.5277 236.506 15.5597 236.288 15.6213C236.07 15.6841 235.962 15.9353 235.962 16.3712V26.6795C235.962 26.8038 235.993 26.9676 236.056 27.172C236.117 27.3752 236.366 27.4761 236.804 27.4761H242.239C244.114 27.4761 245.55 27.3431 246.55 27.0772C247.549 26.8125 248.282 26.2965 248.751 25.5307C249.221 24.7661 249.455 23.4621 249.455 21.6201V21.3862C249.455 19.8249 249.283 18.638 248.939 17.8253C248.594 17.0139 247.954 16.4278 247.018 16.067C246.08 15.71 244.488 15.5277 242.238 15.5277H236.804ZM231.323 42.0016C230.791 42.0016 230.345 41.823 229.987 41.4623C229.628 41.104 229.447 40.6583 229.447 40.1276V11.5938C229.447 11.0311 229.627 10.5718 229.987 10.2111C230.345 9.85275 230.791 9.67175 231.323 9.67175H242.38C244.846 9.67175 246.94 9.85152 248.658 10.2111C250.377 10.5718 251.774 11.1727 252.852 12.0161C253.93 12.8583 254.732 14.0305 255.264 15.529C255.796 17.0287 256.06 18.9027 256.06 21.1535V21.8565C256.06 24.6983 255.655 26.9319 254.841 28.5547C254.03 30.1788 252.687 31.3818 250.811 32.1624C248.937 32.9455 246.126 33.3346 242.378 33.3346H236.803C236.24 33.3346 235.961 33.6153 235.961 34.1768V40.1288C235.961 40.6595 235.779 41.104 235.422 41.4635C235.061 41.8243 234.602 42.0028 234.039 42.0028H231.323V42.0016Z" fill="url(#paint9_linear_5_428)"/>
<path d="M265.573 26.6339C265.573 26.7583 265.604 26.922 265.667 27.1264C265.728 27.3296 265.962 27.4306 266.369 27.4306H274.757C275.318 27.4306 275.6 27.1658 275.6 26.6339C275.6 24.9151 275.302 23.7453 274.711 23.1198C274.117 22.4956 272.835 22.1841 270.868 22.1841H270.165C268.446 22.1841 267.253 22.5103 266.58 23.1666C265.909 23.8229 265.573 24.9778 265.573 26.6339ZM270.446 42.2355C267.29 42.2355 264.94 41.8132 263.394 40.9698C261.849 40.1276 260.739 38.8384 260.069 37.106C259.397 35.3711 259.061 33.0218 259.061 30.0544V29.1162C259.061 26.1808 259.39 23.8451 260.044 22.1127C260.7 20.3778 261.802 19.0886 263.347 18.2464C264.894 17.403 267.213 16.9807 270.305 16.9807H270.774C272.805 16.9807 274.521 17.137 275.927 17.4498C277.333 17.7613 278.481 18.287 279.371 19.0209C280.261 19.7547 280.916 20.7533 281.34 22.0178C281.76 23.2836 281.972 24.8547 281.972 26.7275V27.8997C281.972 29.2738 281.65 30.249 281.01 30.8277C280.37 31.4051 279.394 31.6933 278.082 31.6933H266.369C265.808 31.6933 265.527 31.974 265.527 32.5367C265.527 34.0672 265.879 35.1458 266.579 35.7701C267.282 36.3955 268.572 36.7071 270.446 36.7071H271.149C271.991 36.7071 272.898 36.6443 273.866 36.5199C274.834 36.3955 275.927 36.1912 277.146 35.9104C278.364 35.6297 279.114 35.4881 279.394 35.4881C280.551 35.4881 281.129 36.0816 281.129 37.2698V39.049C281.129 39.5809 281.003 40.0401 280.754 40.4317C280.503 40.8208 279.957 41.1261 279.113 41.3441C276.582 41.9388 273.926 42.2343 271.149 42.2343H270.446V42.2355Z" fill="url(#paint10_linear_5_428)"/>
<path d="M296.215 22.7455C295.683 22.7455 294.717 22.8231 293.31 22.9795C292.904 23.0423 292.577 23.1826 292.325 23.4018C292.074 23.621 291.95 24.1048 291.95 24.8535V40.1276C291.95 40.6595 291.763 41.1052 291.39 41.4635C291.014 41.8218 290.562 42.0028 290.03 42.0028H287.36C286.797 42.0028 286.335 41.823 285.977 41.4635C285.619 41.1052 285.44 40.6595 285.44 40.1276V22.5103C285.44 21.0106 285.696 19.9025 286.212 19.1834C286.728 18.4656 287.626 17.9644 288.907 17.6837C291.249 17.217 293.686 16.9819 296.215 16.9819C297.713 16.9819 299.136 17.0915 300.479 17.3106C301.821 17.5286 302.976 17.9743 303.945 18.6453C304.913 19.3176 305.68 20.3704 306.243 21.8085C306.805 23.2454 307.085 25.3534 307.085 28.1336V40.1276C307.085 40.6595 306.906 41.1052 306.548 41.4635C306.187 41.8218 305.744 42.0028 305.212 42.0028H302.541C301.979 42.0028 301.517 41.823 301.16 41.4635C300.799 41.1052 300.621 40.6595 300.621 40.1276V28.4143C300.621 27.289 300.534 26.3138 300.363 25.4863C300.19 24.6589 299.831 23.9953 299.285 23.4954C298.738 22.9955 297.713 22.7455 296.215 22.7455Z" fill="url(#paint11_linear_5_428)"/>
<path d="M25.0012 0C22.8391 0 20.7422 0.274581 18.7426 0.789258C20.0478 2.08949 21.0673 3.67416 21.7002 5.44352C22.7751 5.26498 23.8771 5.16771 25.0012 5.16771C36.0668 5.16771 45.0379 14.1389 45.0379 25.2056C45.0379 36.27 36.0668 45.2423 25.0012 45.2423C13.9357 45.2423 4.96454 36.27 4.96454 25.2056C4.96454 23.8635 5.09752 22.5534 5.34993 21.2852C3.66061 20.6203 2.15105 19.5971 0.912382 18.3104C0.322597 20.4406 0 22.6827 0 25C0 38.8064 11.1936 50 25 50C38.8064 50 50 38.8064 50 25C50 11.1936 38.8076 0 25.0012 0Z" fill="url(#paint12_linear_5_428)"/>
<path d="M313.65 15.7001C313.75 15.7001 313.827 15.6693 313.888 15.6065C313.948 15.5437 313.98 15.4637 313.98 15.3701V11.1998C313.98 11.0951 314.029 11.0446 314.128 11.0446H315.538C315.635 11.0446 315.716 11.0138 315.779 10.9523C315.842 10.8932 315.875 10.8119 315.875 10.7122V10.3514C315.875 10.2578 315.843 10.1778 315.779 10.1113C315.715 10.0448 315.635 10.0116 315.538 10.0116H311.266C311.174 10.0116 311.095 10.0436 311.032 10.1113C310.97 10.1778 310.939 10.2578 310.939 10.3514V10.7122C310.939 10.8119 310.97 10.8919 311.032 10.9523C311.095 11.0138 311.175 11.0446 311.266 11.0446H312.676C312.776 11.0446 312.826 11.0951 312.826 11.1998V15.3701C312.826 15.4637 312.857 15.5437 312.92 15.6065C312.983 15.6693 313.064 15.7001 313.164 15.7001H313.65ZM317.42 15.6102C317.483 15.5511 317.514 15.4699 317.514 15.3701L317.482 11.5704C317.482 11.3291 317.5 11.1739 317.536 11.105C317.572 11.036 317.648 11.0028 317.761 11.0028C317.889 11.0028 317.972 11.0532 318.01 11.1542C318.048 11.2564 318.083 11.3943 318.11 11.5704L318.489 14.044C318.521 14.2804 318.586 14.4676 318.682 14.608C318.78 14.7471 318.909 14.8481 319.075 14.9072C319.239 14.9687 319.456 14.9995 319.726 14.9995H319.792C320.221 14.9995 320.522 14.9219 320.699 14.7693C320.876 14.6166 320.987 14.374 321.038 14.044L321.407 11.5704C321.45 11.2897 321.501 11.1247 321.557 11.0766C321.611 11.0262 321.678 11.0028 321.754 11.0028C321.897 11.0028 321.982 11.052 322.007 11.1505C322.03 11.2502 322.041 11.3882 322.035 11.5704L322.009 15.3701C322.009 15.4699 322.041 15.5499 322.105 15.6102C322.168 15.6718 322.249 15.7001 322.349 15.7001H322.843C322.943 15.7001 323.02 15.6681 323.077 15.6028C323.135 15.5364 323.163 15.4465 323.163 15.3307V11.1764C323.163 10.8464 323.116 10.5989 323.023 10.4339C322.93 10.2701 322.79 10.1507 322.603 10.0805C322.416 10.0079 322.168 9.97217 321.861 9.97217C321.29 9.97217 320.91 10.0682 320.719 10.2566C320.529 10.4462 320.409 10.7565 320.353 11.1838L320.023 13.5749C319.991 13.7731 319.954 13.8889 319.917 13.9271C319.879 13.9615 319.835 13.9788 319.786 13.9788H319.735C319.66 13.9788 319.606 13.9431 319.58 13.8667C319.552 13.7928 319.526 13.6956 319.505 13.5749L319.167 11.1838C319.112 10.7565 318.99 10.4462 318.802 10.2566C318.611 10.067 318.234 9.97217 317.668 9.97217C317.36 9.97217 317.112 10.0079 316.926 10.0805C316.739 10.1507 316.596 10.2701 316.5 10.4339C316.404 10.6001 316.356 10.8464 316.356 11.1764V15.3307C316.356 15.4465 316.385 15.5364 316.443 15.6028C316.5 15.6681 316.578 15.7001 316.679 15.7001H317.18C317.276 15.7001 317.357 15.6718 317.42 15.6102Z" fill="url(#paint13_linear_5_428)"/>
<defs>
<linearGradient id="paint0_linear_5_428" x1="8.52676" y1="1.72248" x2="8.52674" y2="17.8454" gradientUnits="userSpaceOnUse">
<stop stop-color="white"/>
<stop offset="0.440014" stop-color="#E0E0E0"/>
<stop offset="0.490014" stop-color="#888888"/>
<stop offset="1" stop-color="white"/>
</linearGradient>
<linearGradient id="paint1_linear_5_428" x1="8.52676" y1="1.72248" x2="8.52674" y2="17.8454" gradientUnits="userSpaceOnUse">
<stop stop-color="white"/>
<stop offset="0.440014" stop-color="#E0E0E0"/>
<stop offset="0.490014" stop-color="#888888"/>
<stop offset="1" stop-color="white"/>
</linearGradient>
<linearGradient id="paint2_linear_5_428" x1="21.5103" y1="5.38495" x2="21.5102" y2="45.6982" gradientUnits="userSpaceOnUse">
<stop stop-color="white"/>
<stop offset="0.440014" stop-color="#E0E0E0"/>
<stop offset="0.490014" stop-color="#888888"/>
<stop offset="1" stop-color="white"/>
</linearGradient>
<linearGradient id="paint3_linear_5_428" x1="74.081" y1="6.76196" x2="74.0809" y2="45.5592" gradientUnits="userSpaceOnUse">
<stop stop-color="white"/>
<stop offset="0.440014" stop-color="#E0E0E0"/>
<stop offset="0.490014" stop-color="#888888"/>
<stop offset="1" stop-color="white"/>
</linearGradient>
<linearGradient id="paint4_linear_5_428" x1="96.6967" y1="6.25217" x2="96.6965" y2="45.608" gradientUnits="userSpaceOnUse">
<stop stop-color="white"/>
<stop offset="0.440014" stop-color="#E0E0E0"/>
<stop offset="0.490014" stop-color="#888888"/>
<stop offset="1" stop-color="white"/>
</linearGradient>
<linearGradient id="paint5_linear_5_428" x1="113.12" y1="14.7077" x2="113.12" y2="45.0136" gradientUnits="userSpaceOnUse">
<stop stop-color="white"/>
<stop offset="0.440014" stop-color="#E0E0E0"/>
<stop offset="0.490014" stop-color="#888888"/>
<stop offset="1" stop-color="white"/>
</linearGradient>
<linearGradient id="paint6_linear_5_428" x1="138.189" y1="14.7102" x2="138.189" y2="45.016" gradientUnits="userSpaceOnUse">
<stop stop-color="white"/>
<stop offset="0.440014" stop-color="#E0E0E0"/>
<stop offset="0.490014" stop-color="#888888"/>
<stop offset="1" stop-color="white"/>
</linearGradient>
<linearGradient id="paint7_linear_5_428" x1="168.482" y1="14.679" x2="168.482" y2="44.7603" gradientUnits="userSpaceOnUse">
<stop stop-color="white"/>
<stop offset="0.440014" stop-color="#E0E0E0"/>
<stop offset="0.490014" stop-color="#888888"/>
<stop offset="1" stop-color="white"/>
</linearGradient>
<linearGradient id="paint8_linear_5_428" x1="202.326" y1="14.7077" x2="202.326" y2="45.0136" gradientUnits="userSpaceOnUse">
<stop stop-color="white"/>
<stop offset="0.440014" stop-color="#E0E0E0"/>
<stop offset="0.490014" stop-color="#888888"/>
<stop offset="1" stop-color="white"/>
</linearGradient>
<linearGradient id="paint9_linear_5_428" x1="239.988" y1="6.76196" x2="239.988" y2="45.5592" gradientUnits="userSpaceOnUse">
<stop stop-color="white"/>
<stop offset="0.440014" stop-color="#E0E0E0"/>
<stop offset="0.490014" stop-color="#888888"/>
<stop offset="1" stop-color="white"/>
</linearGradient>
<linearGradient id="paint10_linear_5_428" x1="268.136" y1="14.7077" x2="268.136" y2="45.0136" gradientUnits="userSpaceOnUse">
<stop stop-color="white"/>
<stop offset="0.440014" stop-color="#E0E0E0"/>
<stop offset="0.490014" stop-color="#888888"/>
<stop offset="1" stop-color="white"/>
</linearGradient>
<linearGradient id="paint11_linear_5_428" x1="294.013" y1="14.73" x2="294.013" y2="44.7551" gradientUnits="userSpaceOnUse">
<stop stop-color="white"/>
<stop offset="0.440014" stop-color="#E0E0E0"/>
<stop offset="0.490014" stop-color="#888888"/>
<stop offset="1" stop-color="white"/>
</linearGradient>
<linearGradient id="paint12_linear_5_428" x1="19.8043" y1="-4.5" x2="19.8042" y2="55.5" gradientUnits="userSpaceOnUse">
<stop stop-color="white"/>
<stop offset="0.440014" stop-color="#E0E0E0"/>
<stop offset="0.490014" stop-color="#888888"/>
<stop offset="1" stop-color="white"/>
</linearGradient>
<linearGradient id="paint13_linear_5_428" x1="315.781" y1="9.45665" x2="315.781" y2="16.3302" gradientUnits="userSpaceOnUse">
<stop stop-color="white"/>
<stop offset="0.440014" stop-color="#E0E0E0"/>
<stop offset="0.490014" stop-color="#888888"/>
<stop offset="1" stop-color="white"/>
</linearGradient>
</defs>
</svg>
