<svg xmlns="http://www.w3.org/2000/svg" xmlns:xlink="http://www.w3.org/1999/xlink" version="1.1" id="Layer_1" x="0px" y="0px" style="enable-background:new 0 0 2834.65 2834.65;" xml:space="preserve" viewBox="105.39 1214.34 2624.6 406.08">
<style type="text/css">
	.st0{fill:#231F20;}
</style>
<g>
	<g>
		<path class="st0" d="M185.98,1347.27c30.14,0,54.56-24.43,54.56-54.56c0-30.14-24.43-54.56-54.56-54.56s-54.56,24.43-54.56,54.56    C131.42,1322.84,155.84,1347.27,185.98,1347.27"/>
		<path class="st0" d="M185.98,1347.27c30.14,0,54.56-24.43,54.56-54.56c0-30.14-24.43-54.56-54.56-54.56    c-30.12,0-54.56,24.43-54.56,54.56C131.42,1322.84,155.86,1347.27,185.98,1347.27"/>
		<path class="st0" d="M444.86,1419.04c-75.35,0-136.43-61.07-136.43-136.41c0,75.35-61.07,136.41-136.41,136.41    c75.35,0,136.41,61.08,136.41,136.43C308.44,1480.12,369.52,1419.04,444.86,1419.04"/>
		<path class="st0" d="M681.18,1340.45c-1.01,0-2.42,0.26-4.17,0.76c-1.79,0.51-2.67,2.55-2.67,6.09v83.72c0,1.01,0.25,2.34,0.76,4    c0.5,1.65,2.53,2.47,6.08,2.47h44.15c15.22,0,26.89-1.08,35-3.24c8.11-2.15,14.09-6.34,17.9-12.56c3.79-6.21,5.7-16.8,5.7-31.76    v-1.9c0-12.68-1.39-22.32-4.17-28.92c-2.81-6.59-8-11.35-15.61-14.28c-7.62-2.9-20.55-4.38-38.81-4.38H681.18z M636.66,1555.46    c-4.31,0-7.94-1.45-10.84-4.38c-2.93-2.91-4.38-6.53-4.38-10.84V1308.5c0-4.57,1.45-8.3,4.38-11.23c2.9-2.91,6.53-4.38,10.84-4.38    h89.81c20.03,0,37.04,1.46,50.99,4.38c13.94,2.93,25.31,7.81,34.05,14.66c8.76,6.84,15.29,16.36,19.59,28.53    c4.32,12.18,6.47,27.4,6.47,45.68v5.71c0,23.08-3.3,41.22-9.89,54.4c-6.6,13.19-17.51,22.96-32.73,29.3    c-15.22,6.36-38.05,9.52-68.49,9.52h-45.3c-4.55,0-6.84,2.28-6.84,6.84v48.34c0,4.31-1.46,7.92-4.38,10.84    c-2.93,2.93-6.66,4.38-11.23,4.38H636.66z"/>
		<path class="st0" d="M922.44,1540.24c0,4.32-1.46,7.94-4.38,10.85c-2.93,2.91-6.66,4.36-11.23,4.36h-21.69    c-4.32,0-7.94-1.45-10.84-4.36c-2.93-2.91-4.38-6.53-4.38-10.85V1304.7c0-4.57,1.45-8.32,4.38-11.23    c2.9-2.91,6.52-4.38,10.84-4.38h21.69c4.57,0,8.3,1.46,11.23,4.38c2.91,2.91,4.38,6.66,4.38,11.23V1540.24z"/>
		<path class="st0" d="M1079.6,1482.4c0-3.05-0.51-5.64-1.52-7.81c-1.01-2.14-4.06-3.73-9.12-4.74c-6.85-1.52-15.99-2.28-27.41-2.28    h-3.79c-11.94,0-20.31,1.71-25.12,5.14c-4.83,3.41-7.23,9.2-7.23,17.31v2.67c0,8.63,2.4,14.78,7.23,18.45    c4.8,3.68,13.31,5.52,25.5,5.52h3.41c10.41,0,18.66-0.63,24.73-1.9c4.06-0.76,7.29-2.09,9.71-4c2.4-1.9,3.62-6.28,3.62-13.12    V1482.4z M977.62,1407.81c-4.32,0-7.86-1.33-10.66-4c-2.78-2.67-4.17-6.4-4.17-11.22v-12.56c0-10.4,5.32-16.99,15.98-19.78    c18.77-5.33,41.47-8,68.11-8c24.6,0,42.63,3.31,54.04,9.9c11.42,6.6,19.48,16.68,24.16,30.26c4.7,13.58,7.04,32.28,7.04,56.13    v48.71c0,13.69-2.48,24.79-7.42,33.29c-4.94,8.51-13.44,15.1-25.5,19.78c-12.05,4.7-30.37,7.04-54.99,7.04h-10.27    c-26.9,0-47.07-5.14-60.51-15.41c-13.44-10.28-20.17-26.7-20.17-49.28v-4.19c0-7.35,1.01-14.47,3.05-21.31    c2.02-6.85,5.71-12.76,11.03-17.71c5.33-4.94,12.68-8.87,22.08-11.79c9.37-2.91,21.69-4.38,36.9-4.38h8.38    c12.17,0,24.73,1.14,37.67,3.43c4.82,0.76,7.23-1.52,7.23-6.85c0-11.92-2.74-20.28-8.17-25.12c-5.46-4.8-15.04-7.23-28.75-7.23    c-6.84,0-13.88,0.51-21.12,1.54c-7.22,1.01-15.6,2.72-25.12,5.13C986.93,1406.61,980.66,1407.81,977.62,1407.81"/>
		<path class="st0" d="M1278.61,1493.82c0-4.57-1.9-8.19-5.71-10.85c-3.81-2.65-16.62-6.02-38.43-10.08    c-19.04-3.56-33.62-7.42-43.76-11.61c-10.16-4.19-17.51-9.77-22.08-16.74c-4.57-6.97-6.85-17.57-6.85-31.78    c0-21.06,6.41-36.41,19.23-46.04s33.42-14.45,61.83-14.45c27.15,0,49.22,2.65,66.22,7.98c5.56,1.79,9.5,4,11.79,6.66    c2.28,2.67,3.43,6.91,3.43,12.76v15.6c0,4.32-1.39,7.92-4.19,10.84c-2.8,2.93-6.34,4.38-10.65,4.38c-3.05,0-9.33-1.45-18.83-4.38    c-9.52-2.91-18.03-4.99-25.5-6.27c-7.5-1.27-14.79-1.9-21.89-1.9c-10.65,0-18.07,1.2-22.26,3.6c-4.19,2.42-6.27,6.41-6.27,11.99    c0,4.57,1.96,8,5.89,10.28c3.94,2.28,12.24,4.82,24.92,7.6c22.83,4.32,40.08,8.57,51.75,12.76c11.67,4.19,20.24,9.58,25.69,16.17    c5.45,6.6,8.19,17,8.19,31.21c0,22.58-6.91,39.19-20.74,49.85c-13.84,10.66-36.86,15.98-69.08,15.98    c-25.63,0-47.56-2.4-65.83-7.22c-5.58-1.52-9.58-3.68-11.98-6.47c-2.42-2.78-3.62-7.23-3.62-13.33v-15.6    c0-4.31,1.39-7.92,4.17-10.85c2.8-2.9,6.47-4.36,11.04-4.36c3.29,0,10.09,1.46,20.36,4.36c10.28,2.93,19.35,5.02,27.21,6.28    c7.86,1.27,15.35,1.9,22.45,1.9c9.64,0,17.63-1.07,23.97-3.24C1275.44,1506.69,1278.61,1501.68,1278.61,1493.82"/>
		<path class="st0" d="M1633.64,1555.46h-21.69c-4.57,0-8.32-1.45-11.22-4.38c-2.93-2.91-4.39-6.53-4.39-10.84v-74.96    c0-18.77-1.07-32.6-3.22-41.49c-2.17-8.87-6.93-15.27-14.28-19.21c-7.35-3.92-21.18-5.9-41.47-5.9c-4.82,0-7.23,2.28-7.23,6.85    v134.71c0,4.31-1.46,7.92-4.38,10.84c-2.91,2.93-6.65,4.38-11.22,4.38h-21.31c-4.57,0-8.32-1.45-11.23-4.38    c-2.91-2.91-4.38-6.53-4.38-10.84v-134.71c0-4.57-2.78-6.85-8.36-6.85c-16.5,0-30.83,1.03-43,3.05c-5.59,0.76-9.4,2.42-11.42,4.95    c-2.04,2.53-3.05,7.1-3.05,13.69v119.88c0,4.31-1.52,7.92-4.57,10.84c-3.05,2.93-6.72,4.38-11.03,4.38h-21.7    c-4.55,0-8.3-1.45-11.22-4.38c-2.91-2.91-4.38-6.53-4.38-10.84v-143.47c0-11.92,2.28-20.85,6.85-26.83    c4.57-5.95,12.8-9.83,24.73-11.6c27.9-4.32,66.21-6.47,114.91-6.47c45.66,0,77.63,2.86,95.89,8.57    c18.28,5.71,30.77,15.35,37.49,28.92c6.72,13.58,10.08,33.67,10.08,60.31v90.58c0,4.31-1.45,7.92-4.36,10.84    C1641.58,1554.01,1637.95,1555.46,1633.64,1555.46"/>
		<path class="st0" d="M1804.11,1482.4c0-3.05-0.51-5.64-1.52-7.81c-1.01-2.14-4.06-3.73-9.12-4.74c-6.85-1.52-15.99-2.28-27.4-2.28    h-3.81c-11.94,0-20.3,1.71-25.12,5.14c-4.82,3.41-7.23,9.2-7.23,17.31v2.67c0,8.63,2.42,14.78,7.23,18.45    c4.82,3.68,13.31,5.52,25.5,5.52h3.43c10.4,0,18.64-0.63,24.72-1.9c4.06-0.76,7.29-2.09,9.71-4c2.42-1.9,3.62-6.28,3.62-13.12    V1482.4z M1702.13,1407.81c-4.32,0-7.86-1.33-10.65-4c-2.8-2.67-4.19-6.4-4.19-11.22v-12.56c0-10.4,5.32-16.99,15.98-19.78    c18.77-5.33,41.49-8,68.11-8c24.62,0,42.63,3.31,54.04,9.9c11.42,6.6,19.48,16.68,24.16,30.26c4.7,13.58,7.04,32.28,7.04,56.13    v48.71c0,13.69-2.47,24.79-7.41,33.29c-4.95,8.51-13.46,15.1-25.51,19.78c-12.05,4.7-30.37,7.04-54.99,7.04h-10.27    c-26.89,0-47.07-5.14-60.51-15.41c-13.44-10.28-20.17-26.7-20.17-49.28v-4.19c0-7.35,1.01-14.47,3.05-21.31    c2.04-6.85,5.71-12.76,11.04-17.71c5.32-4.94,12.68-8.87,22.07-11.79c9.37-2.91,21.69-4.38,36.9-4.38h8.38    c12.17,0,24.73,1.14,37.68,3.43c4.8,0.76,7.22-1.52,7.22-6.85c0-11.92-2.72-20.28-8.17-25.12c-5.46-4.8-15.04-7.23-28.73-7.23    c-6.85,0-13.9,0.51-21.12,1.54c-7.23,1.01-15.61,2.72-25.13,5.13C1711.46,1406.61,1705.17,1407.81,1702.13,1407.81"/>
		<path class="st0" d="M2028.62,1340.45c-1.01,0-2.42,0.26-4.19,0.76c-1.77,0.51-2.65,2.55-2.65,6.09v83.72c0,1.01,0.25,2.34,0.76,4    c0.5,1.65,2.52,2.47,6.08,2.47h44.14c15.23,0,26.89-1.08,35.01-3.24c8.11-2.15,14.07-6.34,17.88-12.56    c3.81-6.21,5.71-16.8,5.71-31.76v-1.9c0-12.68-1.39-22.32-4.19-28.92c-2.8-6.59-8-11.35-15.6-14.28    c-7.62-2.9-20.55-4.38-38.82-4.38H2028.62z M1984.1,1555.46c-4.32,0-7.94-1.45-10.85-4.38c-2.91-2.91-4.38-6.53-4.38-10.84V1308.5    c0-4.57,1.46-8.3,4.38-11.23c2.91-2.91,6.53-4.38,10.85-4.38h89.8c20.03,0,37.04,1.46,50.99,4.38    c13.96,2.93,25.31,7.81,34.06,14.66c8.76,6.84,15.27,16.36,19.59,28.53c4.32,12.18,6.47,27.4,6.47,45.68v5.71    c0,23.08-3.29,41.22-9.9,54.4c-6.59,13.19-17.5,22.96-32.73,29.3c-15.22,6.36-38.05,9.52-68.49,9.52h-45.28    c-4.57,0-6.84,2.28-6.84,6.84v48.34c0,4.31-1.48,7.92-4.38,10.84c-2.93,2.93-6.66,4.38-11.23,4.38H1984.1z"/>
		<path class="st0" d="M2262.27,1430.65c0,1.01,0.25,2.34,0.76,4c0.5,1.65,2.4,2.47,5.7,2.47h68.13c4.55,0,6.84-2.15,6.84-6.47    c0-13.96-2.42-23.46-7.22-28.54c-4.82-5.07-15.23-7.6-31.21-7.6h-5.71c-13.96,0-23.65,2.65-29.11,7.98    C2265,1407.82,2262.27,1417.2,2262.27,1430.65 M2301.84,1557.36c-25.63,0-44.71-3.43-57.27-10.28    c-12.55-6.84-21.56-17.31-27-31.38c-5.46-14.09-8.19-33.17-8.19-57.27v-7.62c0-23.84,2.67-42.81,7.98-56.88    c5.33-14.09,14.28-24.56,26.83-31.4c12.56-6.85,31.4-10.28,56.51-10.28h3.81c16.49,0,30.43,1.27,41.85,3.81    c11.42,2.53,20.74,6.8,27.97,12.76c7.23,5.96,12.55,14.07,15.99,24.34c3.41,10.28,5.13,23.04,5.13,38.25v9.52    c0,11.16-2.61,19.08-7.81,23.78c-5.2,4.69-13.12,7.03-23.78,7.03h-95.13c-4.55,0-6.84,2.28-6.84,6.85    c0,12.43,2.86,21.19,8.55,26.26c5.71,5.08,16.18,7.61,31.4,7.61h5.71c6.84,0,14.21-0.51,22.07-1.52    c7.86-1.01,16.74-2.67,26.64-4.95c9.89-2.28,15.98-3.43,18.26-3.43c9.39,0,14.09,4.82,14.09,14.47v14.45    c0,4.32-1.03,8.05-3.05,11.23c-2.04,3.16-6.47,5.64-13.33,7.41c-20.55,4.83-42.12,7.23-64.68,7.23H2301.84z"/>
		<path class="st0" d="M2511.13,1399.07c-4.32,0-12.17,0.63-23.59,1.9c-3.3,0.51-5.96,1.65-8,3.43s-3.05,5.71-3.05,11.79v124.05    c0,4.32-1.52,7.94-4.55,10.85c-3.05,2.91-6.72,4.38-11.04,4.38h-21.69c-4.57,0-8.32-1.46-11.23-4.38    c-2.91-2.91-4.36-6.53-4.36-10.85v-143.08c0-12.18,2.08-21.18,6.27-27.02c4.19-5.83,11.48-9.9,21.89-12.18    c19.02-3.79,38.81-5.7,59.35-5.7c12.17,0,23.72,0.89,34.63,2.67c10.9,1.77,20.28,5.39,28.15,10.84    c7.86,5.46,14.09,14.01,18.66,25.69c4.57,11.67,6.84,28.79,6.84,51.37v97.41c0,4.32-1.45,7.94-4.36,10.85    c-2.93,2.91-6.53,4.38-10.85,4.38h-21.69c-4.57,0-8.32-1.46-11.22-4.38c-2.93-2.91-4.38-6.53-4.38-10.85v-95.13    c0-9.14-0.7-17.06-2.09-23.78c-1.41-6.72-4.32-12.11-8.76-16.17S2523.3,1399.07,2511.13,1399.07"/>
		<path class="st0" d="M308.44,1214.34c-17.56,0-34.59,2.23-50.83,6.41c10.6,10.56,18.88,23.43,24.02,37.8    c8.73-1.45,17.68-2.24,26.81-2.24c89.87,0,162.73,72.86,162.73,162.74c0,89.86-72.86,162.73-162.73,162.73    s-162.73-72.87-162.73-162.73c0-10.9,1.08-21.54,3.13-31.84c-13.72-5.4-25.98-13.71-36.04-24.16c-4.79,17.3-7.41,35.51-7.41,54.33    c0,112.13,90.91,203.04,203.04,203.04s203.04-90.91,203.04-203.04S420.57,1214.34,308.44,1214.34"/>
		<path class="st0" d="M2652.73,1341.85c0.81,0,1.44-0.25,1.93-0.76s0.75-1.16,0.75-1.92v-33.87c0-0.85,0.4-1.26,1.2-1.26h11.45    c0.79,0,1.45-0.25,1.96-0.75c0.51-0.48,0.78-1.14,0.78-1.95v-2.93c0-0.76-0.26-1.41-0.78-1.95s-1.17-0.81-1.96-0.81h-34.69    c-0.75,0-1.39,0.26-1.9,0.81c-0.51,0.54-0.76,1.19-0.76,1.95v2.93c0,0.81,0.25,1.46,0.76,1.95c0.51,0.5,1.16,0.75,1.9,0.75h11.45    c0.81,0,1.22,0.41,1.22,1.26v33.87c0,0.76,0.25,1.41,0.76,1.92c0.51,0.51,1.17,0.76,1.98,0.76H2652.73z M2683.35,1341.12    c0.51-0.48,0.76-1.14,0.76-1.95l-0.26-30.86c0-1.96,0.15-3.22,0.44-3.78c0.29-0.56,0.91-0.83,1.83-0.83    c1.04,0,1.71,0.41,2.02,1.23c0.31,0.83,0.59,1.95,0.81,3.38l3.08,20.09c0.26,1.92,0.79,3.44,1.57,4.58    c0.79,1.13,1.84,1.95,3.19,2.43c1.33,0.5,3.09,0.75,5.29,0.75h0.53c3.49,0,5.93-0.63,7.37-1.87c1.44-1.24,2.34-3.21,2.75-5.89    l3-20.09c0.35-2.28,0.76-3.62,1.22-4.01c0.44-0.41,0.98-0.6,1.6-0.6c1.16,0,1.85,0.4,2.05,1.2c0.19,0.81,0.28,1.93,0.23,3.41    l-0.21,30.86c0,0.81,0.26,1.46,0.78,1.95c0.51,0.5,1.17,0.73,1.98,0.73h4.01c0.81,0,1.44-0.26,1.9-0.79    c0.47-0.54,0.7-1.27,0.7-2.21v-33.74c0-2.68-0.38-4.69-1.14-6.03c-0.75-1.33-1.89-2.3-3.41-2.87c-1.52-0.59-3.53-0.88-6.02-0.88    c-4.64,0-7.73,0.78-9.28,2.31c-1.54,1.54-2.52,4.06-2.97,7.53l-2.68,19.42c-0.26,1.61-0.56,2.55-0.86,2.86    c-0.31,0.28-0.67,0.42-1.07,0.42h-0.41c-0.61,0-1.05-0.29-1.26-0.91c-0.23-0.6-0.44-1.39-0.61-2.37l-2.74-19.42    c-0.45-3.47-1.44-5.99-2.97-7.53c-1.55-1.54-4.61-2.31-9.21-2.31c-2.5,0-4.51,0.29-6.02,0.88c-1.52,0.57-2.68,1.54-3.46,2.87    c-0.78,1.35-1.17,3.35-1.17,6.03v33.74c0,0.94,0.23,1.67,0.7,2.21c0.47,0.53,1.1,0.79,1.92,0.79h4.07    C2682.18,1341.85,2682.84,1341.62,2683.35,1341.12"/>
	</g>
</g>
</svg>