<svg width="169" height="118" viewBox="0 0 169 118" fill="none" xmlns="http://www.w3.org/2000/svg">
<path d="M169 84.5C169 131.168 157.168 114.5 110.5 114.5C63.8319 114.5 0 131.168 0 84.5C0 37.8319 37.8319 0 84.5 0C131.168 0 169 37.8319 169 84.5Z" fill="url(#paint0_linear_656_5521)"/>
<path d="M125.292 68.5835L123.625 89.4168C123 95.7918 122.5 100.667 111.208 100.667H58.7918C47.5001 100.667 47.0001 95.7918 46.3751 89.4168L44.7084 68.5835C44.3751 65.1252 45.4584 61.9168 47.4168 59.4585C47.4584 59.4168 47.4584 59.4168 47.5001 59.3752C49.7918 56.5835 53.2501 54.8335 57.1251 54.8335H112.875C116.75 54.8335 120.167 56.5835 122.417 59.2918C122.458 59.3335 122.5 59.3752 122.5 59.4168C124.542 61.8752 125.667 65.0835 125.292 68.5835Z" stroke="#292D32" stroke-width="1.5" stroke-miterlimit="10"/>
<path d="M49.5833 56.6252V35.1668C49.5833 21.0002 53.1249 17.4585 67.2916 17.4585H72.5833C77.8749 17.4585 79.0833 19.0418 81.0833 21.7085L86.3749 28.7918C87.7083 30.5418 88.4999 31.6252 92.0416 31.6252H102.667C116.833 31.6252 120.375 35.1668 120.375 49.3335V56.7918" stroke="#292D32" stroke-width="1.5" stroke-miterlimit="10" stroke-linecap="round" stroke-linejoin="round"/>
<path d="M74.2917 79.8335H95.7084" stroke="#B357C3" stroke-width="1.5" stroke-miterlimit="10" stroke-linecap="round" stroke-linejoin="round"/>
<defs>
<linearGradient id="paint0_linear_656_5521" x1="84.5" y1="0" x2="84.5" y2="117.394" gradientUnits="userSpaceOnUse">
<stop stop-color="#F8CFFF"/>
<stop offset="1" stop-color="white"/>
</linearGradient>
</defs>
</svg>
