<svg width="64" height="64" viewBox="0 0 64 64" fill="none" xmlns="http://www.w3.org/2000/svg">
<path d="M8.45312 19.8398L31.9998 33.4665L55.3864 19.9198" stroke="#292D32" stroke-width="2" stroke-linecap="round" stroke-linejoin="round"/>
<path d="M32 57.6281V33.4414" stroke="#292D32" stroke-width="2" stroke-linecap="round" stroke-linejoin="round"/>
<path d="M57.6263 24.452V39.5455C57.6263 39.6788 57.6264 39.7853 57.5997 39.9187C55.733 38.292 53.333 37.3321 50.6663 37.3321C48.1597 37.3321 45.8397 38.2121 43.9997 39.6788C41.5463 41.6254 39.9997 44.6387 39.9997 47.9988C39.9997 49.9988 40.5596 51.8921 41.5463 53.4921C41.7863 53.9187 42.0797 54.3188 42.3997 54.6921L37.5197 57.3855C34.4797 59.0921 29.5197 59.0921 26.4797 57.3855L12.2397 49.4921C9.013 47.7054 6.37305 43.2255 6.37305 39.5455V24.452C6.37305 20.772 9.013 16.2921 12.2397 14.5054L26.4797 6.61203C29.5197 4.90536 34.4797 4.90536 37.5197 6.61203L51.7597 14.5054C54.9864 16.2921 57.6263 20.772 57.6263 24.452Z" stroke="#292D32" stroke-width="2" stroke-linecap="round" stroke-linejoin="round"/>
<path d="M61.3325 47.7614C61.3858 49.7614 60.8525 51.6548 59.8925 53.2814C59.3591 54.2414 58.6392 55.1215 57.8392 55.8415C55.9992 57.5482 53.5725 58.5882 50.8791 58.6682C46.9858 58.7482 43.5458 56.7482 41.6525 53.6815C40.6391 52.1082 40.0258 50.2149 39.9992 48.2149C39.9192 44.8549 41.4125 41.8148 43.8125 39.8148C45.6258 38.3215 47.9192 37.3882 50.4258 37.3348C56.3192 37.2015 61.1992 41.8681 61.3325 47.7614Z" stroke="#B357C3" stroke-width="2" stroke-miterlimit="10" stroke-linecap="round" stroke-linejoin="round"/>
<path d="M46.5059 48.0807L49.1992 50.6406L54.7725 45.2539" stroke="#B357C3" stroke-width="2" stroke-linecap="round" stroke-linejoin="round"/>
</svg>
