<svg width="64" height="64" viewBox="0 0 64 64" fill="none" xmlns="http://www.w3.org/2000/svg">
<path d="M23.125 38.2142C23.125 41.6542 25.765 44.4276 29.045 44.4276H35.7383C38.5917 44.4276 40.9117 42.0009 40.9117 39.0142C40.9117 35.7609 39.4983 34.6142 37.3917 33.8676L26.645 30.1342C24.5383 29.3876 23.125 28.2409 23.125 24.9876C23.125 22.0009 25.445 19.5742 28.2983 19.5742H34.9917C38.2717 19.5742 40.9117 22.3476 40.9117 25.7876" stroke="#B357C3" stroke-width="2" stroke-linecap="round" stroke-linejoin="round"/>
<path d="M32 16V48" stroke="#B357C3" stroke-width="2" stroke-linecap="round" stroke-linejoin="round"/>
<path d="M32.0007 58.6654C46.7282 58.6654 58.6673 46.7263 58.6673 31.9987C58.6673 17.2711 46.7282 5.33203 32.0007 5.33203C17.2731 5.33203 5.33398 17.2711 5.33398 31.9987C5.33398 46.7263 17.2731 58.6654 32.0007 58.6654Z" stroke="#292D32" stroke-width="2" stroke-linecap="round" stroke-linejoin="round"/>
</svg>
