<svg width="64" height="64" viewBox="0 0 64 64" fill="none" xmlns="http://www.w3.org/2000/svg">
<path d="M41.0399 13.892L44.7998 21.412C45.3065 22.452 46.6665 23.4387 47.8132 23.652L54.6132 24.772C58.9599 25.492 59.9732 28.6387 56.8532 31.7853L51.5465 37.092C50.6665 37.972 50.1599 39.7053 50.4532 40.9587L51.9732 47.5187C53.1732 52.692 50.3999 54.7187 45.8399 51.9987L39.4665 48.212C38.3198 47.5187 36.3999 47.5187 35.2532 48.212L28.8798 51.9987C24.3198 54.692 21.5465 52.692 22.7465 47.5187L24.2666 40.9587C24.5599 39.732 24.0532 37.9987 23.1732 37.092L17.8666 31.7853C14.7466 28.6653 15.7599 25.5187 20.1066 24.772L26.9065 23.652C28.0532 23.4653 29.4132 22.452 29.9199 21.412L33.6799 13.892C35.6799 9.81203 38.9866 9.81203 41.0399 13.892Z" stroke="#292D32" stroke-width="2" stroke-linecap="round" stroke-linejoin="round"/>
<path d="M21.334 13.332H5.33398" stroke="#B357C3" stroke-width="2" stroke-linecap="round" stroke-linejoin="round"/>
<path d="M13.334 50.668H5.33398" stroke="#B357C3" stroke-width="2" stroke-linecap="round" stroke-linejoin="round"/>
<path d="M8.00065 32H5.33398" stroke="#B357C3" stroke-width="2" stroke-linecap="round" stroke-linejoin="round"/>
</svg>
