<svg width="60" height="60" viewBox="0 0 60 60" fill="none" xmlns="http://www.w3.org/2000/svg">
<path d="M38.4744 13.025L41.9994 20.075C42.4744 21.05 43.7494 21.975 44.8244 22.175L51.1994 23.225C55.2744 23.9 56.2244 26.85 53.2994 29.8L48.3244 34.775C47.4994 35.6 47.0244 37.225 47.2994 38.4L48.7244 44.55C49.8494 49.4 47.2494 51.3 42.9744 48.75L36.9994 45.2C35.9244 44.55 34.1244 44.55 33.0494 45.2L27.0744 48.75C22.7994 51.275 20.1994 49.4 21.3244 44.55L22.7494 38.4C23.0244 37.25 22.5494 35.625 21.7244 34.775L16.7494 29.8C13.8244 26.875 14.7744 23.925 18.8494 23.225L25.2244 22.175C26.2994 22 27.5744 21.05 28.0494 20.075L31.5744 13.025C33.4494 9.2 36.5494 9.2 38.4744 13.025Z" stroke="#FFC200" stroke-width="3" stroke-linecap="round" stroke-linejoin="round"/>
<path d="M20 12.5H5" stroke="#FFC200" stroke-width="3" stroke-linecap="round" stroke-linejoin="round"/>
<path d="M12.5 47.5H5" stroke="#FFC200" stroke-width="3" stroke-linecap="round" stroke-linejoin="round"/>
<path d="M7.5 30H5" stroke="#FFC200" stroke-width="3" stroke-linecap="round" stroke-linejoin="round"/>
</svg>
