<svg width="24" height="24" viewBox="0 0 24 24" fill="none" xmlns="http://www.w3.org/2000/svg">
<g clip-path="url(#clip0_1186_3700)">
<path d="M18.3638 5.63624C16.7697 4.04588 14.6367 3.11176 12.3869 3.01868C10.137 2.92559 7.93418 3.68032 6.21414 5.13355C4.49409 6.58679 3.38214 8.63268 3.09824 10.8665C2.81435 13.1003 3.37919 15.3593 4.68104 17.1965C5.98289 19.0338 7.9269 20.3156 10.1285 20.7882C12.3301 21.2609 14.6289 20.89 16.5702 19.749C18.5114 18.6079 19.9537 16.7798 20.6117 14.6263C21.2697 12.4729 21.0954 10.1509 20.1235 8.11968" stroke="#132A3B" stroke-width="1.5" stroke-linecap="round" stroke-linejoin="round"/>
<path d="M15.1819 8.81811C14.4375 8.07461 13.4561 7.61544 12.4083 7.52041C11.3605 7.42539 10.3125 7.7005 9.44649 8.29794C8.58047 8.89538 7.95117 9.77738 7.66795 10.7906C7.38473 11.8039 7.4655 12.8844 7.89622 13.8443C8.32694 14.8042 9.08039 15.5828 10.0256 16.0449C10.9708 16.5069 12.0481 16.6231 13.0701 16.3734C14.0921 16.1236 14.9943 15.5237 15.6199 14.6777C16.2455 13.8318 16.5549 12.7935 16.4944 11.7431" stroke="#132A3B" stroke-width="1.5" stroke-linecap="round" stroke-linejoin="round"/>
<path d="M12 12L21 3" stroke="#ACCE39" stroke-width="1.5" stroke-linecap="round" stroke-linejoin="round"/>
</g>
<defs>
<clipPath id="clip0_1186_3700">
<rect width="24" height="24" fill="white"/>
</clipPath>
</defs>
</svg>
